<svg xmlns="http://www.w3.org/2000/svg" viewBox="0 0 4 20"><defs><style>.cls-1{fill:#fff;}</style></defs><title>more-icon</title><g id="Capa_2" data-name="Capa 2"><g id="Capa_1-2" data-name="Capa 1"><path class="cls-1" d="M4,18a2,2,0,0,1-.15.77,1.88,1.88,0,0,1-.44.64,1.88,1.88,0,0,1-.64.44,2.05,2.05,0,0,1-1.54,0,1.88,1.88,0,0,1-.64-.44,1.88,1.88,0,0,1-.44-.64,2.05,2.05,0,0,1,0-1.54,1.88,1.88,0,0,1,.44-.64,1.88,1.88,0,0,1,.64-.44,2.05,2.05,0,0,1,1.54,0,1.88,1.88,0,0,1,.64.44,1.88,1.88,0,0,1,.44.64A2,2,0,0,1,4,18Z"/><path class="cls-1" d="M4,10a2,2,0,0,1-.15.77,1.88,1.88,0,0,1-.44.64,1.88,1.88,0,0,1-.64.44,2.05,2.05,0,0,1-1.54,0,1.88,1.88,0,0,1-.64-.44,1.88,1.88,0,0,1-.44-.64,2.05,2.05,0,0,1,0-1.54,1.88,1.88,0,0,1,.44-.64,1.88,1.88,0,0,1,.64-.44,2.05,2.05,0,0,1,1.54,0,1.88,1.88,0,0,1,.64.44,1.88,1.88,0,0,1,.44.64A2,2,0,0,1,4,10Z"/><path class="cls-1" d="M4,2a2,2,0,0,1-.15.77,1.88,1.88,0,0,1-.44.64,1.88,1.88,0,0,1-.64.44,2.05,2.05,0,0,1-1.54,0,1.88,1.88,0,0,1-.64-.44,1.88,1.88,0,0,1-.44-.64,2.05,2.05,0,0,1,0-1.54A1.88,1.88,0,0,1,.59.59,1.88,1.88,0,0,1,1.23.15a2.05,2.05,0,0,1,1.54,0,1.88,1.88,0,0,1,.64.44,1.88,1.88,0,0,1,.44.64A2,2,0,0,1,4,2Z"/></g></g></svg>